<svg xmlns="http://www.w3.org/2000/svg" viewBox="0 0 96 96" role="img" aria-label="Calco PolyTechnik Pvt Ltd favicon">
  <rect width="96" height="96" rx="18" fill="#ffffff"/>
  <path fill="#d74b4b" d="M24 14l28 7-18 28c-5 8-7 16-7 24 0 6 1 11 4 16-7-8-11-18-13-31-2-14-2-29 0-44 1 0 3 0 6 0z"/>
  <path fill="#d74b4b" d="M49 7l6 18-21 16c-9 7-14 18-15 31-2-5-2-11-1-18 4-19 14-35 31-47z"/>
  <path fill="#d74b4b" d="M67 18l8 28-25 8c-17 5-28 14-33 26-1-6 0-12 3-18 6-16 22-31 47-44z"/>
  <path fill="#d74b4b" d="M25 19v28c0 12 2 21 6 28 7 13 19 19 34 19 12 0 21-3 27-8 6-5 8-12 8-21 0-4 0-8-1-11H68c6 5 9 10 9 16 0 6-2 11-7 15-5 4-11 6-19 6-11 0-20-3-26-10-7-7-10-17-10-30 0-12 3-23 9-33 6-10 13-20 21-29z"/>
</svg>
